<svg width="102" height="9" viewBox="0 0 102 9" fill="none" xmlns="http://www.w3.org/2000/svg">
<path d="M1 4C0.723858 4 0.5 4.22386 0.5 4.5C0.5 4.77614 0.723858 5 1 5V4ZM101.354 4.85355C101.549 4.65829 101.549 4.34171 101.354 4.14645L98.1716 0.964466C97.9763 0.769204 97.6597 0.769204 97.4645 0.964466C97.2692 1.15973 97.2692 1.47631 97.4645 1.67157L100.293 4.5L97.4645 7.32843C97.2692 7.52369 97.2692 7.84027 97.4645 8.03553C97.6597 8.2308 97.9763 8.2308 98.1716 8.03553L101.354 4.85355ZM1 5C1.14085 5 1.28151 5 1.42199 5C1.56247 5 1.70278 5 1.8429 5C1.98302 5 2.12296 5 2.26272 5C2.40248 5 2.54206 5 2.68145 5C2.82085 5 2.96007 5 3.09911 5C3.23814 5 3.377 5 3.51568 5C3.65436 5 3.79285 5 3.93117 5C4.06949 5 4.20763 5 4.34558 5C4.48354 5 4.62132 5 4.75892 5C4.89652 5 5.03393 5 5.17117 5C5.30841 5 5.44547 5 5.58236 5C5.71924 5 5.85594 5 5.99246 5C6.12899 5 6.26533 5 6.4015 5C6.53766 5 6.67365 5 6.80946 5C6.94527 5 7.0809 5 7.21635 5C7.3518 5 7.48707 5 7.62217 5C7.75726 5 7.89218 5 8.02692 5C8.16166 5 8.29622 5 8.4306 5C8.56499 5 8.69919 5 8.83322 5C8.96725 5 9.1011 5 9.23477 5C9.36845 5 9.50194 5 9.63526 5C9.76858 5 9.90172 5 10.0347 5C10.1677 5 10.3004 5 10.4331 5C10.5657 5 10.6981 5 10.8304 5C10.9626 5 11.0947 5 11.2266 5C11.3585 5 11.4902 5 11.6218 5C11.7533 5 11.8847 5 12.0159 5C12.1471 5 12.2781 5 12.409 5C12.5398 5 12.6705 5 12.801 5C12.9315 5 13.0618 5 13.192 5C13.3221 5 13.4521 5 13.5819 5C13.7117 5 13.8413 5 13.9707 5C14.1002 5 14.2295 5 14.3586 5C14.4877 5 14.6166 5 14.7453 5C14.8741 5 15.0026 5 15.131 5C15.2594 5 15.3877 5 15.5157 5C15.6438 5 15.7716 5 15.8993 5C16.027 5 16.1546 5 16.2819 5C16.4093 5 16.5364 5 16.6634 5C16.7904 5 16.9173 5 17.0439 5C17.1706 5 17.2971 5 17.4234 5C17.5497 5 17.6758 5 17.8018 5C17.9278 5 18.0536 5 18.1792 5C18.3048 5 18.4302 5 18.5555 5C18.6808 5 18.8059 5 18.9308 5C19.0557 5 19.1805 5 19.3051 5C19.4297 5 19.5541 5 19.6783 5C19.8026 5 19.9266 5 20.0505 5C20.1744 5 20.2981 5 20.4217 5C20.5452 5 20.6686 5 20.7918 5C20.915 5 21.0381 5 21.1609 5C21.2838 5 21.4065 5 21.529 5C21.6516 5 21.7739 5 21.8961 5C22.0183 5 22.1403 5 22.2621 5C22.384 5 22.5056 5 22.6271 5C22.7486 5 22.87 5 22.9911 5C23.1123 5 23.2333 5 23.3541 5C23.4749 5 23.5955 5 23.716 5C23.8365 5 23.9568 5 24.0769 5C24.1971 5 24.3171 5 24.4368 5C24.5566 5 24.6763 5 24.7957 5C24.9152 5 25.0345 5 25.1536 5C25.2727 5 25.3917 5 25.5105 5C25.6292 5 25.7479 5 25.8663 5C25.9848 5 26.103 5 26.2211 5C26.3392 5 26.4572 5 26.575 5C26.6927 5 26.8103 5 26.9278 5C27.0452 5 27.1625 5 27.2796 5C27.3967 5 27.5136 5 27.6304 5C27.7471 5 27.8637 5 27.9801 5C28.0966 5 28.2128 5 28.3289 5C28.445 5 28.5609 5 28.6767 5C28.7925 5 28.908 5 29.0235 5C29.1389 5 29.2542 5 29.3692 5C29.4843 5 29.5993 5 29.714 5C29.8288 5 29.9434 5 30.0578 5C30.1722 5 30.2865 5 30.4006 5C30.5146 5 30.6286 5 30.7423 5C30.8561 5 30.9697 5 31.0831 5C31.1965 5 31.3098 5 31.4229 5C31.536 5 31.6489 5 31.7617 5C31.8744 5 31.987 5 32.0995 5C32.2119 5 32.3242 5 32.4363 5C32.5484 5 32.6603 5 32.7721 5C32.8839 5 32.9955 5 33.1069 5C33.2184 5 33.3296 5 33.4408 5C33.5519 5 33.6628 5 33.7736 5C33.8844 5 33.995 5 34.1055 5C34.2159 5 34.3262 5 34.4364 5C34.5465 5 34.6565 5 34.7663 5C34.8761 5 34.9857 5 35.0952 5C35.2046 5 35.314 5 35.4231 5C35.5323 5 35.6412 5 35.7501 5C35.8589 5 35.9675 5 36.076 5C36.1845 5 36.2929 5 36.401 5C36.5092 5 36.6172 5 36.7251 5C36.8329 5 36.9406 5 37.0481 5C37.1556 5 37.263 5 37.3702 5C37.4774 5 37.5844 5 37.6913 5C37.7982 5 37.9049 5 38.0114 5C38.118 5 38.2244 5 38.3306 5C38.4368 5 38.5429 5 38.6488 5C38.7547 5 38.8604 5 38.966 5C39.0716 5 39.177 5 39.2822 5C39.3875 5 39.4926 5 39.5975 5C39.7025 5 39.8073 5 39.9119 5C40.0165 5 40.1209 5 40.2252 5C40.3295 5 40.4337 5 40.5376 5C40.6416 5 40.7454 5 40.8491 5C40.9527 5 41.0562 5 41.1595 5C41.2629 5 41.3661 5 41.4691 5C41.5721 5 41.6749 5 41.7776 5C41.8803 5 41.9829 5 42.0852 5C42.1876 5 42.2898 5 42.3919 5C42.4939 5 42.5958 5 42.6976 5C42.7993 5 42.9009 5 43.0023 5C43.1038 5 43.205 5 43.3061 5C43.4072 5 43.5082 5 43.609 5C43.7098 5 43.8104 5 43.9109 5C44.0113 5 44.1117 5 44.2118 5C44.312 5 44.412 5 44.5118 5C44.6117 5 44.7113 5 44.8109 5C44.9104 5 45.0098 5 45.109 5C45.2082 5 45.3072 5 45.4061 5C45.505 5 45.6038 5 45.7024 5C45.8009 5 45.8994 5 45.9976 5C46.0959 5 46.194 5 46.292 5C46.3899 5 46.4877 5 46.5854 5C46.683 5 46.7805 5 46.8779 5C46.9752 5 47.0724 5 47.1694 5C47.2664 5 47.3633 5 47.46 5C47.5567 5 47.6532 5 47.7496 5C47.846 5 47.9423 5 48.0384 5C48.1345 5 48.2304 5 48.3262 5C48.4219 5 48.5176 5 48.613 5C48.7085 5 48.8038 5 48.899 5C48.9941 5 49.0891 5 49.184 5C49.2788 5 49.3735 5 49.468 5C49.5626 5 49.657 5 49.7512 5C49.8454 5 49.9395 5 50.0334 5C50.1274 5 50.2211 5 50.3147 5C50.4084 5 50.5018 5 50.5951 5C50.6884 5 50.7816 5 50.8746 5C50.9676 5 51.0604 5 51.1531 5C51.2458 5 51.3384 5 51.4308 5C51.5231 5 51.6154 5 51.7075 5C51.7995 5 51.8915 5 51.9832 5C52.075 5 52.1667 5 52.2581 5C52.3496 5 52.4409 5 52.5321 5C52.6233 5 52.7143 5 52.8051 5C52.896 5 52.9867 5 53.0773 5C53.1678 5 53.2582 5 53.3485 5C53.4388 5 53.5289 5 53.6188 5C53.7088 5 53.7986 5 53.8882 5C53.9779 5 54.0674 5 54.1567 5C54.2461 5 54.3353 5 54.4243 5C54.5134 5 54.6023 5 54.691 5C54.7798 5 54.8683 5 54.9568 5C55.0452 5 55.1335 5 55.2217 5C55.3098 5 55.3978 5 55.4857 5C55.5735 5 55.6612 5 55.7487 5C55.8363 5 55.9237 5 56.0109 5C56.0982 5 56.1853 5 56.2722 5C56.3592 5 56.4459 5 56.5326 5C56.6192 5 56.7057 5 56.7921 5C56.8784 5 56.9646 5 57.0507 5C57.1367 5 57.2226 5 57.3084 5C57.3941 5 57.4798 5 57.5652 5C57.6507 5 57.736 5 57.8211 5C57.9063 5 57.9913 5 58.0762 5C58.161 5 58.2457 5 58.3303 5C58.4149 5 58.4993 5 58.5836 5C58.6678 5 58.752 5 58.8359 5C58.9199 5 59.0037 5 59.0874 5C59.1711 5 59.2547 5 59.338 5C59.4214 5 59.5047 5 59.5878 5C59.6709 5 59.7538 5 59.8366 5C59.9194 5 60.0021 5 60.0846 5C60.1671 5 60.2494 5 60.3316 5C60.4139 5 60.4959 5 60.5778 5C60.6598 5 60.7415 5 60.8232 5C60.9048 5 60.9863 5 61.0676 5C61.149 5 61.2302 5 61.3112 5C61.3922 5 61.4731 5 61.5539 5C61.6347 5 61.7153 5 61.7957 5C61.8762 5 61.9565 5 62.0367 5C62.1169 5 62.1969 5 62.2768 5C62.3567 5 62.4364 5 62.516 5C62.5956 5 62.6751 5 62.7544 5C62.8337 5 62.9128 5 62.9919 5C63.0709 5 63.1497 5 63.2285 5C63.3072 5 63.3858 5 63.4642 5C63.5427 5 63.621 5 63.6991 5C63.7773 5 63.8553 5 63.9332 5C64.011 5 64.0888 5 64.1664 5C64.2439 5 64.3214 5 64.3987 5C64.476 5 64.5531 5 64.6301 5C64.7071 5 64.784 5 64.8607 5C64.9375 5 65.014 5 65.0905 5C65.1669 5 65.2432 5 65.3194 5C65.3955 5 65.4715 5 65.5474 5C65.6233 5 65.699 5 65.7746 5C65.8502 5 65.9256 5 66.0009 5C66.0762 5 66.1514 5 66.2264 5C66.3014 5 66.3763 5 66.4511 5C66.5258 5 66.6004 5 66.6749 5C66.7493 5 66.8236 5 66.8978 5C66.972 5 67.046 5 67.1199 5C67.1938 5 67.2675 5 67.3411 5C67.4148 5 67.4882 5 67.5616 5C67.6349 5 67.7081 5 67.7811 5C67.8542 5 67.9271 5 67.9999 5C68.0726 5 68.1453 5 68.2178 5C68.2902 5 68.3626 5 68.4348 5C68.507 5 68.5791 5 68.651 5C68.723 5 68.7948 5 68.8664 5C68.9381 5 69.0096 5 69.081 5C69.1523 5 69.2236 5 69.2947 5C69.3658 5 69.4367 5 69.5076 5C69.5784 5 69.6491 5 69.7196 5C69.7901 5 69.8605 5 69.9308 5C70.0011 5 70.0712 5 70.1412 5C70.2112 5 70.2811 5 70.3508 5C70.4205 5 70.4901 5 70.5595 5C70.629 5 70.6983 5 70.7674 5C70.8366 5 70.9056 5 70.9745 5C71.0434 5 71.1122 5 71.1808 5C71.2494 5 71.3179 5 71.3862 5C71.4546 5 71.5228 5 71.5909 5C71.6589 5 71.7269 5 71.7947 5C71.8625 5 71.9301 5 71.9976 5C72.0652 5 72.1326 5 72.1998 5C72.2671 5 72.3342 5 72.4012 5C72.4682 5 72.535 5 72.6017 5C72.6684 5 72.735 5 72.8014 5C72.8679 5 72.9342 5 73.0004 5C73.0665 5 73.1326 5 73.1985 5C73.2644 5 73.3301 5 73.3957 5C73.4614 5 73.5269 5 73.5922 5C73.6576 5 73.7228 5 73.7879 5C73.853 5 73.918 5 73.9828 5C74.0476 5 74.1123 5 74.1768 5C74.2414 5 74.3058 5 74.3701 5C74.4344 5 74.4985 5 74.5626 5C74.6266 5 74.6905 5 74.7542 5C74.818 5 74.8816 5 74.9451 5C75.0086 5 75.0719 5 75.1351 5C75.1983 5 75.2614 5 75.3244 5C75.3873 5 75.4502 5 75.5128 5C75.5755 5 75.6381 5 75.7005 5C75.7629 5 75.8252 5 75.8874 5C75.9495 5 76.0116 5 76.0735 5C76.1354 5 76.1971 5 76.2588 5C76.3204 5 76.3819 5 76.4432 5C76.5046 5 76.5658 5 76.6269 5C76.688 5 76.749 5 76.8099 5C76.8707 5 76.9314 5 76.992 5C77.0526 5 77.113 5 77.1733 5C77.2336 5 77.2938 5 77.3539 5C77.4139 5 77.4739 5 77.5337 5C77.5935 5 77.6531 5 77.7126 5C77.7722 5 77.8316 5 77.8909 5C77.9501 5 78.0093 5 78.0683 5C78.1273 5 78.1862 5 78.2449 5C78.3037 5 78.3623 5 78.4208 5C78.4793 5 78.5377 5 78.5959 5C78.6541 5 78.7122 5 78.7702 5C78.8282 5 78.886 5 78.9437 5C79.0015 5 79.059 5 79.1165 5C79.174 5 79.2313 5 79.2885 5C79.3457 5 79.4028 5 79.4597 5C79.5167 5 79.5735 5 79.6302 5C79.6869 5 79.7434 5 79.7999 5C79.8563 5 79.9126 5 79.9688 5C80.025 5 80.081 5 80.1369 5C80.1928 5 80.2486 5 80.3043 5C80.36 5 80.4155 5 80.4709 5C80.5263 5 80.5816 5 80.6368 5C80.6919 5 80.747 5 80.8019 5C80.8568 5 80.9116 5 80.9662 5C81.0209 5 81.0754 5 81.1298 5C81.1842 5 81.2385 5 81.2926 5C81.3468 5 81.4008 5 81.4547 5C81.5086 5 81.5623 5 81.616 5C81.6696 5 81.7231 5 81.7765 5C81.8299 5 81.8832 5 81.9363 5C81.9895 5 82.0425 5 82.0954 5C82.1482 5 82.201 5 82.2536 5C82.3063 5 82.3588 5 82.4112 5C82.4636 5 82.5158 5 82.568 5C82.6201 5 82.6721 5 82.724 5C82.7759 5 82.8277 5 82.8793 5C82.931 5 82.9825 5 83.0339 5C83.0853 5 83.1365 5 83.1877 5C83.2388 5 83.2898 5 83.3407 5C83.3916 5 83.4424 5 83.4931 5C83.5437 5 83.5942 5 83.6446 5C83.6951 5 83.7453 5 83.7955 5C83.8456 5 83.8957 5 83.9456 5C83.9955 5 84.0453 5 84.095 5C84.1446 5 84.1942 5 84.2436 5C84.293 5 84.3423 5 84.3915 5C84.4407 5 84.4897 5 84.5386 5C84.5876 5 84.6364 5 84.6851 5C84.7338 5 84.7823 5 84.8308 5C84.8792 5 84.9275 5 84.9757 5C85.0239 5 85.072 5 85.12 5C85.1679 5 85.2158 5 85.2635 5C85.3112 5 85.3588 5 85.4063 5C85.4537 5 85.5011 5 85.5483 5C85.5956 5 85.6427 5 85.6897 5C85.7366 5 85.7835 5 85.8303 5C85.877 5 85.9236 5 85.9702 5C86.0167 5 86.063 5 86.1093 5C86.1556 5 86.2017 5 86.2478 5C86.2938 5 86.3397 5 86.3855 5C86.4313 5 86.477 5 86.5225 5C86.5681 5 86.6135 5 86.6588 5C86.7041 5 86.7493 5 86.7944 5C86.8395 5 86.8844 5 86.9293 5C86.9741 5 87.0188 5 87.0634 5C87.108 5 87.1525 5 87.1968 5C87.2412 5 87.2854 5 87.3296 5C87.3737 5 87.4177 5 87.4616 5C87.5055 5 87.5493 5 87.5929 5C87.6366 5 87.6801 5 87.7235 5C87.7669 5 87.8102 5 87.8534 5C87.8966 5 87.9397 5 87.9826 5C88.0256 5 88.0684 5 88.1111 5C88.1538 5 88.1964 5 88.2389 5C88.2814 5 88.3237 5 88.366 5C88.4082 5 88.4504 5 88.4924 5C88.5344 5 88.5763 5 88.6181 5C88.6599 5 88.7015 5 88.7431 5C88.7846 5 88.826 5 88.8674 5C88.9087 5 88.9499 5 88.991 5C89.0321 5 89.073 5 89.1139 5C89.1547 5 89.1955 5 89.2361 5C89.2767 5 89.3172 5 89.3576 5C89.398 5 89.4383 5 89.4785 5C89.5186 5 89.5587 5 89.5986 5C89.6385 5 89.6784 5 89.7181 5C89.7578 5 89.7974 5 89.8368 5C89.8763 5 89.9157 5 89.9549 5C89.9942 5 90.0333 5 90.0723 5C90.1113 5 90.1502 5 90.189 5C90.2278 5 90.2665 5 90.3051 5C90.3436 5 90.3821 5 90.4204 5C90.4588 5 90.497 5 90.5351 5C90.5732 5 90.6112 5 90.6491 5C90.687 5 90.7247 5 90.7624 5C90.8001 5 90.8376 5 90.875 5C90.9125 5 90.9498 5 90.987 5C91.0242 5 91.0613 5 91.0983 5C91.1353 5 91.1722 5 91.2089 5C91.2457 5 91.2823 5 91.3189 5C91.3554 5 91.3918 5 91.4281 5C91.4645 5 91.5007 5 91.5367 5C91.5728 5 91.6088 5 91.6447 5C91.6805 5 91.7163 5 91.752 5C91.7876 5 91.8231 5 91.8586 5C91.894 5 91.9293 5 91.9645 5C91.9997 5 92.0348 5 92.0698 5C92.1048 5 92.1396 5 92.1744 5C92.2092 5 92.2438 5 92.2784 5C92.3129 5 92.3473 5 92.3816 5C92.416 5 92.4502 5 92.4843 5C92.5184 5 92.5524 5 92.5863 5C92.6201 5 92.6539 5 92.6876 5C92.7212 5 92.7548 5 92.7882 5C92.8217 5 92.855 5 92.8883 5C92.9215 5 92.9546 5 92.9876 5C93.0206 5 93.0535 5 93.0863 5C93.1191 5 93.1518 5 93.1844 5C93.2169 5 93.2494 5 93.2818 5C93.3141 5 93.3464 5 93.3785 5C93.4107 5 93.4427 5 93.4746 5C93.5066 5 93.5384 5 93.5701 5C93.6018 5 93.6334 5 93.6649 5C93.6964 5 93.7278 5 93.7591 5C93.7904 5 93.8216 5 93.8526 5C93.8837 5 93.9147 5 93.9455 5C93.9764 5 94.0071 5 94.0378 5C94.0684 5 94.099 5 94.1294 5C94.1598 5 94.1902 5 94.2204 5C94.2506 5 94.2807 5 94.3107 5C94.3407 5 94.3706 5 94.4004 5C94.4302 5 94.4599 5 94.4895 5C94.5191 5 94.5486 5 94.5779 5C94.6073 5 94.6366 5 94.6657 5C94.6949 5 94.724 5 94.7529 5C94.7819 5 94.8107 5 94.8395 5C94.8682 5 94.8968 5 94.9254 5C94.9539 5 94.9823 5 95.0107 5C95.039 5 95.0672 5 95.0953 5C95.1234 5 95.1515 5 95.1794 5C95.2073 5 95.2351 5 95.2628 5C95.2905 5 95.3181 5 95.3456 5C95.3731 5 95.4005 5 95.4277 5C95.455 5 95.4822 5 95.5093 5C95.5364 5 95.5633 5 95.5902 5C95.6171 5 95.6439 5 95.6705 5C95.6972 5 95.7238 5 95.7502 5C95.7767 5 95.8031 5 95.8293 5C95.8556 5 95.8817 5 95.9078 5C95.9338 5 95.9598 5 95.9856 5C96.0115 5 96.0372 5 96.0629 5C96.0885 5 96.1141 5 96.1395 5C96.1649 5 96.1903 5 96.2155 5C96.2408 5 96.2659 5 96.2909 5C96.316 5 96.3409 5 96.3657 5C96.3906 5 96.4153 5 96.4399 5C96.4646 5 96.4891 5 96.5135 5C96.538 5 96.5623 5 96.5865 5C96.6108 5 96.6349 5 96.6589 5C96.6829 5 96.7069 5 96.7307 5C96.7545 5 96.7783 5 96.8019 5C96.8255 5 96.849 5 96.8725 5C96.8959 5 96.9192 5 96.9425 5C96.9657 5 96.9888 5 97.0119 5C97.0349 5 97.0578 5 97.0807 5C97.1035 5 97.1262 5 97.1489 5C97.1715 5 97.194 5 97.2165 5C97.2389 5 97.2612 5 97.2835 5C97.3057 5 97.3279 5 97.3499 5C97.372 5 97.3939 5 97.4157 5C97.4376 5 97.4593 5 97.481 5C97.5026 5 97.5242 5 97.5457 5C97.5671 5 97.5885 5 97.6097 5C97.631 5 97.6522 5 97.6732 5C97.6943 5 97.7153 5 97.7361 5C97.757 5 97.7778 5 97.7984 5C97.8191 5 97.8397 5 97.8602 5C97.8807 5 97.9011 5 97.9213 5C97.9416 5 97.9618 5 97.9819 5C98.002 5 98.022 5 98.0419 5C98.0618 5 98.0816 5 98.1014 5C98.1211 5 98.1407 5 98.1602 5C98.1797 5 98.1992 5 98.2185 5C98.2378 5 98.2571 5 98.2762 5C98.2953 5 98.3144 5 98.3333 5C98.3523 5 98.3711 5 98.3899 5C98.4086 5 98.4273 5 98.4459 5C98.4644 5 98.4829 5 98.5013 5C98.5197 5 98.538 5 98.5562 5C98.5743 5 98.5924 5 98.6104 5C98.6284 5 98.6463 5 98.6642 5C98.682 5 98.6997 5 98.7173 5C98.7349 5 98.7525 5 98.7699 5C98.7874 5 98.8047 5 98.822 5C98.8392 5 98.8564 5 98.8734 5C98.8905 5 98.9075 5 98.9243 5C98.9412 5 98.958 5 98.9747 5C98.9914 5 99.008 5 99.0245 5C99.041 5 99.0574 5 99.0737 5C99.0901 5 99.1063 5 99.1224 5C99.1386 5 99.1546 5 99.1706 5C99.1865 5 99.2024 5 99.2181 5C99.2339 5 99.2496 5 99.2652 5C99.2808 5 99.2963 5 99.3117 5C99.3271 5 99.3424 5 99.3576 5C99.3728 5 99.3879 5 99.403 5C99.418 5 99.433 5 99.4478 5C99.4627 5 99.4774 5 99.4921 5C99.5068 5 99.5214 5 99.5359 5C99.5504 5 99.5648 5 99.5791 5C99.5934 5 99.6076 5 99.6217 5C99.6359 5 99.6499 5 99.6639 5C99.6778 5 99.6917 5 99.7055 5C99.7192 5 99.7329 5 99.7465 5C99.7601 5 99.7736 5 99.787 5C99.8004 5 99.8137 5 99.827 5C99.8402 5 99.8534 5 99.8664 5C99.8795 5 99.8924 5 99.9053 5C99.9182 5 99.931 5 99.9437 5C99.9564 5 99.969 5 99.9815 5C99.9941 5 100.007 5 100.019 5C100.031 5 100.043 5 100.056 5C100.068 5 100.08 5 100.092 5C100.104 5 100.116 5 100.128 5C100.139 5 100.151 5 100.163 5C100.174 5 100.186 5 100.198 5C100.209 5 100.22 5 100.232 5C100.243 5 100.254 5 100.265 5C100.276 5 100.287 5 100.298 5C100.309 5 100.32 5 100.331 5C100.342 5 100.352 5 100.363 5C100.374 5 100.384 5 100.395 5C100.405 5 100.415 5 100.426 5C100.436 5 100.446 5 100.456 5C100.466 5 100.476 5 100.486 5C100.496 5 100.506 5 100.516 5C100.525 5 100.535 5 100.545 5C100.554 5 100.564 5 100.573 5C100.583 5 100.592 5 100.601 5C100.61 5 100.62 5 100.629 5C100.638 5 100.647 5 100.656 5C100.665 5 100.673 5 100.682 5C100.691 5 100.699 5 100.708 5C100.717 5 100.725 5 100.733 5C100.742 5 100.75 5 100.758 5C100.767 5 100.775 5 100.783 5C100.791 5 100.799 5 100.807 5C100.815 5 100.823 5 100.83 5C100.838 5 100.846 5 100.853 5C100.861 5 100.868 5 100.876 5C100.883 5 100.89 5 100.898 5C100.905 5 100.912 5 100.919 5C100.926 5 100.933 5 100.94 5C100.947 5 100.954 5 100.961 5C100.967 5 100.974 5 100.98 5C100.987 5 100.994 5 101 5V4C100.994 4 100.987 4 100.98 4C100.974 4 100.967 4 100.961 4C100.954 4 100.947 4 100.94 4C100.933 4 100.926 4 100.919 4C100.912 4 100.905 4 100.898 4C100.89 4 100.883 4 100.876 4C100.868 4 100.861 4 100.853 4C100.846 4 100.838 4 100.83 4C100.823 4 100.815 4 100.807 4C100.799 4 100.791 4 100.783 4C100.775 4 100.767 4 100.758 4C100.75 4 100.742 4 100.733 4C100.725 4 100.717 4 100.708 4C100.699 4 100.691 4 100.682 4C100.673 4 100.665 4 100.656 4C100.647 4 100.638 4 100.629 4C100.62 4 100.61 4 100.601 4C100.592 4 100.583 4 100.573 4C100.564 4 100.554 4 100.545 4C100.535 4 100.525 4 100.516 4C100.506 4 100.496 4 100.486 4C100.476 4 100.466 4 100.456 4C100.446 4 100.436 4 100.426 4C100.415 4 100.405 4 100.395 4C100.384 4 100.374 4 100.363 4C100.352 4 100.342 4 100.331 4C100.32 4 100.309 4 100.298 4C100.287 4 100.276 4 100.265 4C100.254 4 100.243 4 100.232 4C100.22 4 100.209 4 100.198 4C100.186 4 100.174 4 100.163 4C100.151 4 100.139 4 100.128 4C100.116 4 100.104 4 100.092 4C100.08 4 100.068 4 100.056 4C100.043 4 100.031 4 100.019 4C100.007 4 99.9941 4 99.9815 4C99.969 4 99.9564 4 99.9437 4C99.931 4 99.9182 4 99.9053 4C99.8924 4 99.8795 4 99.8664 4C99.8534 4 99.8402 4 99.827 4C99.8137 4 99.8004 4 99.787 4C99.7736 4 99.7601 4 99.7465 4C99.7329 4 99.7192 4 99.7055 4C99.6917 4 99.6778 4 99.6639 4C99.6499 4 99.6359 4 99.6217 4C99.6076 4 99.5934 4 99.5791 4C99.5648 4 99.5504 4 99.5359 4C99.5214 4 99.5068 4 99.4921 4C99.4774 4 99.4627 4 99.4478 4C99.433 4 99.418 4 99.403 4C99.3879 4 99.3728 4 99.3576 4C99.3424 4 99.3271 4 99.3117 4C99.2963 4 99.2808 4 99.2652 4C99.2496 4 99.2339 4 99.2181 4C99.2024 4 99.1865 4 99.1706 4C99.1546 4 99.1386 4 99.1224 4C99.1063 4 99.0901 4 99.0737 4C99.0574 4 99.041 4 99.0245 4C99.008 4 98.9914 4 98.9747 4C98.958 4 98.9412 4 98.9243 4C98.9075 4 98.8905 4 98.8734 4C98.8564 4 98.8392 4 98.822 4C98.8047 4 98.7874 4 98.7699 4C98.7525 4 98.7349 4 98.7173 4C98.6997 4 98.682 4 98.6642 4C98.6463 4 98.6284 4 98.6104 4C98.5924 4 98.5743 4 98.5562 4C98.538 4 98.5197 4 98.5013 4C98.4829 4 98.4644 4 98.4459 4C98.4273 4 98.4086 4 98.3899 4C98.3711 4 98.3523 4 98.3333 4C98.3144 4 98.2953 4 98.2762 4C98.2571 4 98.2378 4 98.2185 4C98.1992 4 98.1797 4 98.1602 4C98.1407 4 98.1211 4 98.1014 4C98.0816 4 98.0618 4 98.0419 4C98.022 4 98.002 4 97.9819 4C97.9618 4 97.9416 4 97.9213 4C97.9011 4 97.8807 4 97.8602 4C97.8397 4 97.8191 4 97.7984 4C97.7778 4 97.757 4 97.7361 4C97.7153 4 97.6943 4 97.6732 4C97.6522 4 97.631 4 97.6097 4C97.5885 4 97.5671 4 97.5457 4C97.5242 4 97.5026 4 97.481 4C97.4593 4 97.4376 4 97.4157 4C97.3939 4 97.372 4 97.3499 4C97.3279 4 97.3057 4 97.2835 4C97.2612 4 97.2389 4 97.2165 4C97.194 4 97.1715 4 97.1489 4C97.1262 4 97.1035 4 97.0807 4C97.0578 4 97.0349 4 97.0119 4C96.9888 4 96.9657 4 96.9425 4C96.9192 4 96.8959 4 96.8725 4C96.849 4 96.8255 4 96.8019 4C96.7783 4 96.7545 4 96.7307 4C96.7069 4 96.6829 4 96.6589 4C96.6349 4 96.6108 4 96.5865 4C96.5623 4 96.538 4 96.5135 4C96.4891 4 96.4646 4 96.4399 4C96.4153 4 96.3906 4 96.3657 4C96.3409 4 96.316 4 96.2909 4C96.2659 4 96.2408 4 96.2155 4C96.1903 4 96.1649 4 96.1395 4C96.1141 4 96.0885 4 96.0629 4C96.0372 4 96.0115 4 95.9856 4C95.9598 4 95.9338 4 95.9078 4C95.8817 4 95.8556 4 95.8293 4C95.8031 4 95.7767 4 95.7502 4C95.7238 4 95.6972 4 95.6705 4C95.6439 4 95.6171 4 95.5902 4C95.5633 4 95.5364 4 95.5093 4C95.4822 4 95.455 4 95.4277 4C95.4005 4 95.3731 4 95.3456 4C95.3181 4 95.2905 4 95.2628 4C95.2351 4 95.2073 4 95.1794 4C95.1515 4 95.1234 4 95.0953 4C95.0672 4 95.039 4 95.0107 4C94.9823 4 94.9539 4 94.9254 4C94.8968 4 94.8682 4 94.8395 4C94.8107 4 94.7819 4 94.7529 4C94.724 4 94.6949 4 94.6657 4C94.6366 4 94.6073 4 94.5779 4C94.5486 4 94.5191 4 94.4895 4C94.4599 4 94.4302 4 94.4004 4C94.3706 4 94.3407 4 94.3107 4C94.2807 4 94.2506 4 94.2204 4C94.1902 4 94.1598 4 94.1294 4C94.099 4 94.0684 4 94.0378 4C94.0071 4 93.9764 4 93.9455 4C93.9147 4 93.8837 4 93.8526 4C93.8216 4 93.7904 4 93.7591 4C93.7278 4 93.6964 4 93.6649 4C93.6334 4 93.6018 4 93.5701 4C93.5384 4 93.5066 4 93.4746 4C93.4427 4 93.4107 4 93.3785 4C93.3464 4 93.3141 4 93.2818 4C93.2494 4 93.2169 4 93.1844 4C93.1518 4 93.1191 4 93.0863 4C93.0535 4 93.0206 4 92.9876 4C92.9546 4 92.9215 4 92.8883 4C92.855 4 92.8217 4 92.7882 4C92.7548 4 92.7212 4 92.6876 4C92.6539 4 92.6201 4 92.5863 4C92.5524 4 92.5184 4 92.4843 4C92.4502 4 92.416 4 92.3816 4C92.3473 4 92.3129 4 92.2784 4C92.2438 4 92.2092 4 92.1744 4C92.1396 4 92.1048 4 92.0698 4C92.0348 4 91.9997 4 91.9645 4C91.9293 4 91.894 4 91.8586 4C91.8231 4 91.7876 4 91.752 4C91.7163 4 91.6805 4 91.6447 4C91.6088 4 91.5728 4 91.5367 4C91.5007 4 91.4645 4 91.4281 4C91.3918 4 91.3554 4 91.3189 4C91.2823 4 91.2457 4 91.2089 4C91.1722 4 91.1353 4 91.0983 4C91.0613 4 91.0242 4 90.987 4C90.9498 4 90.9125 4 90.875 4C90.8376 4 90.8001 4 90.7624 4C90.7247 4 90.687 4 90.6491 4C90.6112 4 90.5732 4 90.5351 4C90.497 4 90.4588 4 90.4204 4C90.3821 4 90.3436 4 90.3051 4C90.2665 4 90.2278 4 90.189 4C90.1502 4 90.1113 4 90.0723 4C90.0333 4 89.9942 4 89.9549 4C89.9157 4 89.8763 4 89.8368 4C89.7974 4 89.7578 4 89.7181 4C89.6784 4 89.6385 4 89.5986 4C89.5587 4 89.5186 4 89.4785 4C89.4383 4 89.398 4 89.3576 4C89.3172 4 89.2767 4 89.2361 4C89.1955 4 89.1547 4 89.1139 4C89.073 4 89.0321 4 88.991 4C88.9499 4 88.9087 4 88.8674 4C88.826 4 88.7846 4 88.7431 4C88.7015 4 88.6599 4 88.6181 4C88.5763 4 88.5344 4 88.4924 4C88.4504 4 88.4082 4 88.366 4C88.3237 4 88.2814 4 88.2389 4C88.1964 4 88.1538 4 88.1111 4C88.0684 4 88.0256 4 87.9826 4C87.9397 4 87.8966 4 87.8534 4C87.8102 4 87.7669 4 87.7235 4C87.6801 4 87.6366 4 87.5929 4C87.5493 4 87.5055 4 87.4616 4C87.4177 4 87.3737 4 87.3296 4C87.2854 4 87.2412 4 87.1968 4C87.1525 4 87.108 4 87.0634 4C87.0188 4 86.9741 4 86.9293 4C86.8844 4 86.8395 4 86.7944 4C86.7493 4 86.7041 4 86.6588 4C86.6135 4 86.5681 4 86.5225 4C86.477 4 86.4313 4 86.3855 4C86.3397 4 86.2938 4 86.2478 4C86.2017 4 86.1556 4 86.1093 4C86.063 4 86.0167 4 85.9702 4C85.9236 4 85.877 4 85.8303 4C85.7835 4 85.7366 4 85.6897 4C85.6427 4 85.5956 4 85.5483 4C85.5011 4 85.4537 4 85.4063 4C85.3588 4 85.3112 4 85.2635 4C85.2158 4 85.1679 4 85.12 4C85.072 4 85.0239 4 84.9757 4C84.9275 4 84.8792 4 84.8308 4C84.7823 4 84.7338 4 84.6851 4C84.6364 4 84.5876 4 84.5386 4C84.4897 4 84.4407 4 84.3915 4C84.3423 4 84.293 4 84.2436 4C84.1942 4 84.1446 4 84.095 4C84.0453 4 83.9955 4 83.9456 4C83.8957 4 83.8456 4 83.7955 4C83.7453 4 83.6951 4 83.6446 4C83.5942 4 83.5437 4 83.4931 4C83.4424 4 83.3916 4 83.3407 4C83.2898 4 83.2388 4 83.1877 4C83.1365 4 83.0853 4 83.0339 4C82.9825 4 82.931 4 82.8793 4C82.8277 4 82.7759 4 82.724 4C82.6721 4 82.6201 4 82.568 4C82.5158 4 82.4636 4 82.4112 4C82.3588 4 82.3063 4 82.2536 4C82.201 4 82.1482 4 82.0954 4C82.0425 4 81.9895 4 81.9363 4C81.8832 4 81.8299 4 81.7765 4C81.7231 4 81.6696 4 81.616 4C81.5623 4 81.5086 4 81.4547 4C81.4008 4 81.3468 4 81.2926 4C81.2385 4 81.1842 4 81.1298 4C81.0754 4 81.0209 4 80.9662 4C80.9116 4 80.8568 4 80.8019 4C80.747 4 80.6919 4 80.6368 4C80.5816 4 80.5263 4 80.4709 4C80.4155 4 80.36 4 80.3043 4C80.2486 4 80.1928 4 80.1369 4C80.081 4 80.025 4 79.9688 4C79.9126 4 79.8563 4 79.7999 4C79.7434 4 79.6869 4 79.6302 4C79.5735 4 79.5167 4 79.4597 4C79.4028 4 79.3457 4 79.2885 4C79.2313 4 79.174 4 79.1165 4C79.059 4 79.0015 4 78.9437 4C78.886 4 78.8282 4 78.7702 4C78.7122 4 78.6541 4 78.5959 4C78.5377 4 78.4793 4 78.4208 4C78.3623 4 78.3037 4 78.2449 4C78.1862 4 78.1273 4 78.0683 4C78.0093 4 77.9501 4 77.8909 4C77.8316 4 77.7722 4 77.7126 4C77.6531 4 77.5935 4 77.5337 4C77.4739 4 77.4139 4 77.3539 4C77.2938 4 77.2336 4 77.1733 4C77.113 4 77.0526 4 76.992 4C76.9314 4 76.8707 4 76.8099 4C76.749 4 76.688 4 76.6269 4C76.5658 4 76.5046 4 76.4432 4C76.3819 4 76.3204 4 76.2588 4C76.1971 4 76.1354 4 76.0735 4C76.0116 4 75.9495 4 75.8874 4C75.8252 4 75.7629 4 75.7005 4C75.6381 4 75.5755 4 75.5128 4C75.4502 4 75.3873 4 75.3244 4C75.2614 4 75.1983 4 75.1351 4C75.0719 4 75.0086 4 74.9451 4C74.8816 4 74.818 4 74.7542 4C74.6905 4 74.6266 4 74.5626 4C74.4985 4 74.4344 4 74.3701 4C74.3058 4 74.2414 4 74.1768 4C74.1123 4 74.0476 4 73.9828 4C73.918 4 73.853 4 73.7879 4C73.7228 4 73.6576 4 73.5922 4C73.5269 4 73.4614 4 73.3957 4C73.3301 4 73.2644 4 73.1985 4C73.1326 4 73.0665 4 73.0004 4C72.9342 4 72.8679 4 72.8014 4C72.735 4 72.6684 4 72.6017 4C72.535 4 72.4682 4 72.4012 4C72.3342 4 72.2671 4 72.1998 4C72.1326 4 72.0652 4 71.9976 4C71.9301 4 71.8625 4 71.7947 4C71.7269 4 71.6589 4 71.5909 4C71.5228 4 71.4546 4 71.3862 4C71.3179 4 71.2494 4 71.1808 4C71.1122 4 71.0434 4 70.9745 4C70.9056 4 70.8366 4 70.7674 4C70.6983 4 70.629 4 70.5595 4C70.4901 4 70.4205 4 70.3508 4C70.2811 4 70.2112 4 70.1412 4C70.0712 4 70.0011 4 69.9308 4C69.8605 4 69.7901 4 69.7196 4C69.6491 4 69.5784 4 69.5076 4C69.4367 4 69.3658 4 69.2947 4C69.2236 4 69.1523 4 69.081 4C69.0096 4 68.9381 4 68.8664 4C68.7948 4 68.723 4 68.651 4C68.5791 4 68.507 4 68.4348 4C68.3626 4 68.2902 4 68.2178 4C68.1453 4 68.0726 4 67.9999 4C67.9271 4 67.8542 4 67.7811 4C67.7081 4 67.6349 4 67.5616 4C67.4882 4 67.4148 4 67.3411 4C67.2675 4 67.1938 4 67.1199 4C67.046 4 66.972 4 66.8978 4C66.8236 4 66.7493 4 66.6749 4C66.6004 4 66.5258 4 66.4511 4C66.3763 4 66.3014 4 66.2264 4C66.1514 4 66.0762 4 66.0009 4C65.9256 4 65.8502 4 65.7746 4C65.699 4 65.6233 4 65.5474 4C65.4715 4 65.3955 4 65.3194 4C65.2432 4 65.1669 4 65.0905 4C65.014 4 64.9375 4 64.8607 4C64.784 4 64.7071 4 64.6301 4C64.5531 4 64.476 4 64.3987 4C64.3214 4 64.2439 4 64.1664 4C64.0888 4 64.011 4 63.9332 4C63.8553 4 63.7773 4 63.6991 4C63.621 4 63.5427 4 63.4642 4C63.3858 4 63.3072 4 63.2285 4C63.1497 4 63.0709 4 62.9919 4C62.9128 4 62.8337 4 62.7544 4C62.6751 4 62.5956 4 62.516 4C62.4364 4 62.3567 4 62.2768 4C62.1969 4 62.1169 4 62.0367 4C61.9565 4 61.8762 4 61.7957 4C61.7153 4 61.6347 4 61.5539 4C61.4731 4 61.3922 4 61.3112 4C61.2302 4 61.149 4 61.0676 4C60.9863 4 60.9048 4 60.8232 4C60.7415 4 60.6598 4 60.5778 4C60.4959 4 60.4139 4 60.3316 4C60.2494 4 60.1671 4 60.0846 4C60.0021 4 59.9194 4 59.8366 4C59.7538 4 59.6709 4 59.5878 4C59.5047 4 59.4214 4 59.338 4C59.2547 4 59.1711 4 59.0874 4C59.0037 4 58.9199 4 58.8359 4C58.752 4 58.6678 4 58.5836 4C58.4993 4 58.4149 4 58.3303 4C58.2457 4 58.161 4 58.0762 4C57.9913 4 57.9063 4 57.8211 4C57.736 4 57.6507 4 57.5652 4C57.4798 4 57.3941 4 57.3084 4C57.2226 4 57.1367 4 57.0507 4C56.9646 4 56.8784 4 56.7921 4C56.7057 4 56.6192 4 56.5326 4C56.4459 4 56.3592 4 56.2722 4C56.1853 4 56.0982 4 56.0109 4C55.9237 4 55.8363 4 55.7487 4C55.6612 4 55.5735 4 55.4857 4C55.3978 4 55.3098 4 55.2217 4C55.1335 4 55.0452 4 54.9568 4C54.8683 4 54.7798 4 54.691 4C54.6023 4 54.5134 4 54.4243 4C54.3353 4 54.2461 4 54.1567 4C54.0674 4 53.9779 4 53.8882 4C53.7986 4 53.7088 4 53.6188 4C53.5289 4 53.4388 4 53.3485 4C53.2582 4 53.1678 4 53.0773 4C52.9867 4 52.896 4 52.8051 4C52.7143 4 52.6233 4 52.5321 4C52.4409 4 52.3496 4 52.2581 4C52.1667 4 52.075 4 51.9832 4C51.8915 4 51.7995 4 51.7075 4C51.6154 4 51.5231 4 51.4308 4C51.3384 4 51.2458 4 51.1531 4C51.0604 4 50.9676 4 50.8746 4C50.7816 4 50.6884 4 50.5951 4C50.5018 4 50.4084 4 50.3147 4C50.2211 4 50.1274 4 50.0334 4C49.9395 4 49.8454 4 49.7512 4C49.657 4 49.5626 4 49.468 4C49.3735 4 49.2788 4 49.184 4C49.0891 4 48.9941 4 48.899 4C48.8038 4 48.7085 4 48.613 4C48.5176 4 48.4219 4 48.3262 4C48.2304 4 48.1345 4 48.0384 4C47.9423 4 47.846 4 47.7496 4C47.6532 4 47.5567 4 47.46 4C47.3633 4 47.2664 4 47.1694 4C47.0724 4 46.9752 4 46.8779 4C46.7805 4 46.683 4 46.5854 4C46.4877 4 46.3899 4 46.292 4C46.194 4 46.0959 4 45.9976 4C45.8994 4 45.8009 4 45.7024 4C45.6038 4 45.505 4 45.4061 4C45.3072 4 45.2082 4 45.109 4C45.0098 4 44.9104 4 44.8109 4C44.7113 4 44.6117 4 44.5118 4C44.412 4 44.312 4 44.2118 4C44.1117 4 44.0113 4 43.9109 4C43.8104 4 43.7098 4 43.609 4C43.5082 4 43.4072 4 43.3061 4C43.205 4 43.1038 4 43.0023 4C42.9009 4 42.7993 4 42.6976 4C42.5958 4 42.4939 4 42.3919 4C42.2898 4 42.1876 4 42.0852 4C41.9829 4 41.8803 4 41.7776 4C41.6749 4 41.5721 4 41.4691 4C41.3661 4 41.2629 4 41.1595 4C41.0562 4 40.9527 4 40.8491 4C40.7454 4 40.6416 4 40.5376 4C40.4337 4 40.3295 4 40.2252 4C40.1209 4 40.0165 4 39.9119 4C39.8073 4 39.7025 4 39.5975 4C39.4926 4 39.3875 4 39.2822 4C39.177 4 39.0716 4 38.966 4C38.8604 4 38.7547 4 38.6488 4C38.5429 4 38.4368 4 38.3306 4C38.2244 4 38.118 4 38.0114 4C37.9049 4 37.7982 4 37.6913 4C37.5844 4 37.4774 4 37.3702 4C37.263 4 37.1556 4 37.0481 4C36.9406 4 36.8329 4 36.7251 4C36.6172 4 36.5092 4 36.401 4C36.2929 4 36.1845 4 36.076 4C35.9675 4 35.8589 4 35.7501 4C35.6412 4 35.5323 4 35.4231 4C35.314 4 35.2046 4 35.0952 4C34.9857 4 34.8761 4 34.7663 4C34.6565 4 34.5465 4 34.4364 4C34.3262 4 34.2159 4 34.1055 4C33.995 4 33.8844 4 33.7736 4C33.6628 4 33.5519 4 33.4408 4C33.3296 4 33.2184 4 33.1069 4C32.9955 4 32.8839 4 32.7721 4C32.6603 4 32.5484 4 32.4363 4C32.3242 4 32.2119 4 32.0995 4C31.987 4 31.8744 4 31.7617 4C31.6489 4 31.536 4 31.4229 4C31.3098 4 31.1965 4 31.0831 4C30.9697 4 30.8561 4 30.7423 4C30.6286 4 30.5146 4 30.4006 4C30.2865 4 30.1722 4 30.0578 4C29.9434 4 29.8288 4 29.714 4C29.5993 4 29.4843 4 29.3692 4C29.2542 4 29.1389 4 29.0235 4C28.908 4 28.7925 4 28.6767 4C28.5609 4 28.445 4 28.3289 4C28.2128 4 28.0966 4 27.9801 4C27.8637 4 27.7471 4 27.6304 4C27.5136 4 27.3967 4 27.2796 4C27.1625 4 27.0452 4 26.9278 4C26.8103 4 26.6927 4 26.575 4C26.4572 4 26.3392 4 26.2211 4C26.103 4 25.9848 4 25.8663 4C25.7479 4 25.6292 4 25.5105 4C25.3917 4 25.2727 4 25.1536 4C25.0345 4 24.9152 4 24.7957 4C24.6763 4 24.5566 4 24.4368 4C24.3171 4 24.1971 4 24.0769 4C23.9568 4 23.8365 4 23.716 4C23.5955 4 23.4749 4 23.3541 4C23.2333 4 23.1123 4 22.9911 4C22.87 4 22.7486 4 22.6271 4C22.5056 4 22.384 4 22.2621 4C22.1403 4 22.0183 4 21.8961 4C21.7739 4 21.6516 4 21.529 4C21.4065 4 21.2838 4 21.1609 4C21.0381 4 20.915 4 20.7918 4C20.6686 4 20.5452 4 20.4217 4C20.2981 4 20.1744 4 20.0505 4C19.9266 4 19.8026 4 19.6783 4C19.5541 4 19.4297 4 19.3051 4C19.1805 4 19.0557 4 18.9308 4C18.8059 4 18.6808 4 18.5555 4C18.4302 4 18.3048 4 18.1792 4C18.0536 4 17.9278 4 17.8018 4C17.6758 4 17.5497 4 17.4234 4C17.2971 4 17.1706 4 17.0439 4C16.9173 4 16.7904 4 16.6634 4C16.5364 4 16.4093 4 16.2819 4C16.1546 4 16.027 4 15.8993 4C15.7716 4 15.6438 4 15.5157 4C15.3877 4 15.2594 4 15.131 4C15.0026 4 14.8741 4 14.7453 4C14.6166 4 14.4877 4 14.3586 4C14.2295 4 14.1002 4 13.9707 4C13.8413 4 13.7117 4 13.5819 4C13.4521 4 13.3221 4 13.192 4C13.0618 4 12.9315 4 12.801 4C12.6705 4 12.5398 4 12.409 4C12.2781 4 12.1471 4 12.0159 4C11.8847 4 11.7533 4 11.6218 4C11.4902 4 11.3585 4 11.2266 4C11.0947 4 10.9626 4 10.8304 4C10.6981 4 10.5657 4 10.4331 4C10.3004 4 10.1677 4 10.0347 4C9.90172 4 9.76858 4 9.63526 4C9.50194 4 9.36845 4 9.23477 4C9.1011 4 8.96725 4 8.83322 4C8.69919 4 8.56499 4 8.4306 4C8.29622 4 8.16166 4 8.02692 4C7.89218 4 7.75726 4 7.62217 4C7.48707 4 7.3518 4 7.21635 4C7.0809 4 6.94527 4 6.80946 4C6.67365 4 6.53766 4 6.4015 4C6.26533 4 6.12899 4 5.99246 4C5.85594 4 5.71924 4 5.58236 4C5.44547 4 5.30841 4 5.17117 4C5.03393 4 4.89652 4 4.75892 4C4.62132 4 4.48354 4 4.34558 4C4.20763 4 4.06949 4 3.93117 4C3.79285 4 3.65436 4 3.51568 4C3.377 4 3.23814 4 3.09911 4C2.96007 4 2.82085 4 2.68145 4C2.54206 4 2.40248 4 2.26272 4C2.12296 4 1.98302 4 1.8429 4C1.70278 4 1.56247 4 1.42199 4C1.28151 4 1.14085 4 1 4V5Z" fill="black"/>
</svg>
